<?xml version="1.0" encoding="UTF-8"?>
<svg width="32px" height="22px" viewBox="0 0 32 22" version="1.1" xmlns="http://www.w3.org/2000/svg" xmlns:xlink="http://www.w3.org/1999/xlink">
    <title>btn_drag_y</title>
    <defs>
        <filter x="-54.2%" y="-29.5%" width="208.3%" height="159.1%" filterUnits="objectBoundingBox" id="filter-1">
            <feOffset dx="0" dy="1" in="SourceAlpha" result="shadowOffsetOuter1"></feOffset>
            <feGaussianBlur stdDeviation="1" in="shadowOffsetOuter1" result="shadowBlurOuter1"></feGaussianBlur>
            <feColorMatrix values="0 0 0 0 0   0 0 0 0 0   0 0 0 0 0  0 0 0 0.5 0" type="matrix" in="shadowBlurOuter1" result="shadowMatrixOuter1"></feColorMatrix>
            <feMerge>
                <feMergeNode in="shadowMatrixOuter1"></feMergeNode>
                <feMergeNode in="SourceGraphic"></feMergeNode>
            </feMerge>
        </filter>
    </defs>
    <g id="功能控件" stroke="none" stroke-width="1" fill="none" fill-rule="evenodd">
        <g id="2日期控件" transform="translate(-668.000000, -679.000000)" fill-rule="nonzero">
            <g id="btn_drag_y" filter="url(#filter-1)" transform="translate(683.997841, 690.001815) rotate(90.000000) translate(-683.997841, -690.001815) translate(677.997841, 679.002421)">
                <path d="M5.9984583,4.99939484 L5.84919595,5.00488057 C4.81433609,5.08122972 3.9984583,5.94503304 3.9984583,6.99939484 L3.998,8.99939484 L2.993,8.99939484 L2.99383297,8.72191061 C2.99383318,8.37365462 2.90323701,8.0320522 2.73097731,7.73013297 C2.18359366,6.77073476 0.962105627,6.43673097 0.00270741657,6.98411461 L-3.99017713,9.26225071 C-4.30113918,9.43966978 -4.55877642,9.69730702 -4.73619549,10.0082691 C-5.28357914,10.9676673 -4.94957534,12.1891553 -3.99017713,12.736539 L0.00270741657,15.0146751 C0.304626646,15.1869348 0.646229059,15.2775309 0.99383318,15.2775309 L1.14309553,15.2720452 C2.17795539,15.1956961 2.99383318,14.3318927 2.99383318,13.2775309 L2.993,12.9993948 L3.998,12.9993948 L3.99845831,14.9995476 C3.9984583,16.1039643 4.8938888,16.9993948 6.0015417,16.9993948 L6.15080405,16.9939091 C7.18566391,16.91756 8.0015417,16.0537566 8.0015417,14.9993948 L8,12.9993948 L9.006,12.9993948 L9.00616683,13.2776615 C9.00616682,13.6251351 9.09676299,13.9667375 9.26902269,14.2686567 C9.81640634,15.2280549 11.0378944,15.5620587 11.9972926,15.0146751 L15.9901771,12.736539 C16.3011392,12.5591199 16.5587764,12.3014827 16.7361955,11.9905206 C17.2835791,11.0311224 16.9495753,9.80963435 15.9901771,9.26225071 L11.9972926,6.98411461 C11.6953734,6.81185491 11.3537709,6.72125874 11.0061668,6.72125874 L10.8569045,6.72674447 C9.82204461,6.80309362 9.00616682,7.66689694 9.00616682,8.72125874 L9.006,8.99939484 L8,8.99939484 L8.00154169,6.99957541 C8.0015417,5.94504125 7.18566391,5.08123009 6.15080405,5.00488059 L5.9984583,4.99939484 Z" id="路径" fill="#FFFFFF" transform="translate(6.000000, 10.999395) rotate(90.000000) translate(-6.000000, -10.999395) "></path>
                <path d="M6.00136997,5.99939484 C6.55365472,5.99939484 7.00136997,6.44711009 7.00136997,6.99939484 L7.00082826,9.99939484 L10.0058283,9.99939484 L10.0059951,8.72125874 C10.0059951,8.16897399 10.4537103,7.72125874 11.0059951,7.72125874 C11.1797971,7.72125874 11.3505984,7.76655682 11.501558,7.85268667 L15.4944425,10.1308228 C15.9741416,10.4045146 16.1411435,11.0152586 15.8674517,11.4949577 C15.7787422,11.6504387 15.6499235,11.7792574 15.4944425,11.8679669 L11.501558,14.146103 C11.0218589,14.4197948 10.4111148,14.2527929 10.137423,13.7730938 C10.0512932,13.6221342 10.0059951,13.451333 10.0059951,13.2775309 L10.0058283,11.9993948 L7.00082826,11.9993948 L7.00136997,14.9993948 C7.00136997,15.5122307 6.61532978,15.934902 6.1179911,15.9926671 L5.99828656,15.9993948 C5.44600181,15.9993948 4.99828656,15.5516796 4.99828656,14.9993948 L4.99782826,11.9993948 L1.99282826,11.9993948 L1.99366145,13.2775309 C1.99366145,13.8298157 1.5459462,14.2775309 0.993661445,14.2775309 C0.819859385,14.2775309 0.649058178,14.2322329 0.498098563,14.146103 L-3.49478598,11.8679669 C-3.97448509,11.5942751 -4.14148699,10.9835311 -3.86779517,10.503832 C-3.77908563,10.3483509 -3.65026701,10.2195323 -3.49478598,10.1308228 L0.498098563,7.85268667 C0.977797668,7.57899485 1.58854169,7.74599675 1.86223351,8.22569586 C1.94836336,8.37665547 1.99366145,8.54745668 1.99366145,8.72125874 L1.99282826,9.99939484 L4.99782826,9.99939484 L4.99828656,6.99939484 C4.99828656,6.486559 5.38432675,6.06388768 5.88166543,6.00612257 L6.00136997,5.99939484 Z" id="路径" fill="#000000" transform="translate(5.999828, 10.999395) rotate(90.000000) translate(-5.999828, -10.999395) "></path>
            </g>
        </g>
    </g>
</svg>